<svg viewBox="0 0 200 200" xmlns="http://www.w3.org/2000/svg">
  <defs>
    <linearGradient id="mainGradient" x1="0%" y1="0%" x2="100%" y2="100%">
      <stop offset="0%" style="stop-color:#0066cc;stop-opacity:1"></stop>
      <stop offset="100%" style="stop-color:#001f3f;stop-opacity:1"></stop>
    </linearGradient>
  </defs>
  
  
  <path d="M 140 50 Q 160 50 160 65 Q 160 75 145 80 L 65 80 Q 50 80 50 95 Q 50 110 70 115 L 145 115 Q 160 115 160 130 Q 160 150 130 150 Q 105 150 90 140" fill="url(#mainGradient)" stroke="none"></path>
  
  
  <path d="M 60 150 Q 45 150 45 135 Q 45 125 60 120 L 140 120 Q 155 120 155 105 Q 155 90 135 85 L 60 85 Q 45 85 45 70 Q 45 50 75 50 Q 100 50 115 60" fill="#001f3f" stroke="none"></path>
  
  
  <ellipse cx="80" cy="75" rx="20" ry="12" fill="white" opacity="0.25"></ellipse>
  
  
  <rect x="155" y="85" width="8" height="40" rx="4" fill="#0066cc" opacity="0.6"></rect>
</svg>